<?xml version="1.0" encoding="utf-8"?>
<!-- Generator: Adobe Illustrator 22.0.1, SVG Export Plug-In . SVG Version: 6.00 Build 0)  -->
<svg version="1.1" id="Layer_1" xmlns="http://www.w3.org/2000/svg" xmlns:xlink="http://www.w3.org/1999/xlink" x="0px" y="0px"
	 viewBox="0 0 50 50" style="enable-background:new 0 0 50 50;" xml:space="preserve">
<style type="text/css">
	.st0{fill:#0038BA;}
</style>
<g>
	<path class="st0" d="M50,11.9V7.4l-2.1-0.6c-0.1-0.2-0.1-0.4-0.2-0.6l1.1-1.9l-3.2-3.2l-1.9,1.1c-0.2-0.1-0.4-0.2-0.6-0.2L42.6,0
		h-4.5l-0.6,2.1c-0.2,0.1-0.4,0.1-0.6,0.2l-1.9-1.1l-3.2,3.2L33,6.3c0,0.1-0.1,0.2-0.1,0.3c-0.8,0.1-1.6,0.4-2.4,0.7
		c-2.6-3.6-6.7-5.7-11.1-5.7c-7.6,0-13.7,6.1-13.7,13.7c0,0,0,0,0,0.1C2.5,15.8,0,18.5,0,21.8c0,3.6,2.9,6.5,6.5,6.5h0.5L17.7,39v11
		h14.5V39l10.8-10.8h0.5c3.6,0,6.5-2.9,6.5-6.5c0-2.2-1.1-4.1-2.8-5.3l1.5-1.5L47.7,13c0.1-0.2,0.2-0.4,0.2-0.6L50,11.9z M30.6,38.4
		v10H19.4v-10L7.7,26.7c-0.3-0.3-0.4-0.7-0.4-1c0-0.8,0.7-1.5,1.5-1.5c0.4,0,0.8,0.2,1,0.4l6.3,6.3c1.3,1.3,3.1,2.2,5,2.5l2.1,0.3
		l-0.6,7.7l2.4,2.4l2.4-2.4l-0.6-7.7l2.1-0.3c1.9-0.3,3.7-1.2,5-2.5l6.3-6.3c0.3-0.3,0.7-0.4,1-0.4c0.8,0,1.5,0.7,1.5,1.5
		c0,0.4-0.2,0.8-0.4,1L30.6,38.4z M18.6,28.2c0.2,1.2,0.7,2.4,1.4,3.3c-1.1-0.4-2-1-2.8-1.7l-1.6-1.6H18.6z M31.4,28.2h2.9l-1.6,1.6
		C32,30.6,31,31.2,30,31.5C30.7,30.6,31.2,29.5,31.4,28.2L31.4,28.2z M25.8,40.8L25,41.6l-0.8-0.8l0.6-7l0.1,0c0,0,0.1,0,0.1,0h0.2
		L25.8,40.8z M25,32.3c-2.7,0-4.8-2.2-4.8-4.8s2.2-4.8,4.8-4.8s4.8,2.2,4.8,4.8S27.7,32.3,25,32.3z M48.4,21.8
		c0,2.4-1.8,4.5-4.2,4.8c0.1-0.3,0.1-0.6,0.1-0.9c0-1.7-1.4-3.1-3.1-3.1c-0.8,0-1.6,0.3-2.2,0.9L36,26.6h-4.6C31,23.4,28.3,21,25,21
		s-6,2.5-6.4,5.6H14l-3.1-3.1c-0.6-0.6-1.4-0.9-2.2-0.9c-1.7,0-3.1,1.4-3.1,3.1c0,0.3,0.1,0.6,0.1,0.9c-2.4-0.3-4.2-2.3-4.2-4.8
		c0-2.7,2.2-4.8,4.8-4.8c1.6,0,3.1,0.8,4,2.1l1.3-0.9c-1.1-1.5-2.7-2.5-4.5-2.7c0,0,0,0,0-0.1c0-6.7,5.4-12.1,12.1-12.1
		c4.1,0,7.9,2.1,10.2,5.6l0.4,0.6l0.7-0.3c1.3-0.7,2.7-1,4.1-1c4.3,0,8,3.1,8.7,7.3c-3.5,0.1-6.3,2.9-6.3,6.4h1.6
		c0-2.7,2.2-4.8,4.8-4.8C46.2,16.9,48.4,19.1,48.4,21.8z M43.3,11c-1.2-1.7-2.9-3.1-4.9-3.8c0.6-0.4,1.2-0.7,2-0.7
		c1.8,0,3.2,1.4,3.2,3.2C43.5,10.1,43.4,10.6,43.3,11z M46.7,14.7l-1,1c-0.2-0.1-0.4-0.1-0.7-0.2c-0.1-1-0.4-2-0.9-3
		c0.6-0.8,1-1.8,1-2.9c0-2.7-2.2-4.8-4.8-4.8c-1.5,0-2.8,0.7-3.8,1.8c-0.6-0.1-1.2-0.2-1.8-0.2l0.1-0.2l-0.9-1.6l1.4-1.4l1.6,0.9
		L37.3,4c0.4-0.2,0.7-0.3,1.1-0.5l0.4-0.1l0.5-1.8h2l0.5,1.8l0.4,0.1C42.6,3.6,43,3.8,43.3,4l0.4,0.2l1.6-0.9l1.4,1.4l-0.9,1.6
		L46,6.7c0.2,0.4,0.3,0.7,0.5,1.1l0.1,0.4l1.8,0.5v2l-1.8,0.5l-0.1,0.4c-0.1,0.4-0.3,0.7-0.5,1.1l-0.2,0.4L46.7,14.7z"/>
	<path class="st0" d="M32.5,16.7l1,1H16.5l1-1l-1.1-1.1l-3,3l3,3l1.1-1.1l-1-1h17.1l-1,1l1.1,1.1l3-3l-3-3L32.5,16.7z"/>
	<path class="st0" d="M22.8,5.4c-0.6-0.2-1.2-0.4-1.7-0.5l-0.3,1.6c0.5,0.1,1,0.2,1.5,0.4L22.8,5.4z"/>
	<path class="st0" d="M19.4,4.8c-5.1,0-9.5,3.7-10.3,8.7l1.6,0.3c0.7-4.3,4.4-7.4,8.7-7.4V4.8z"/>
</g>
</svg>
