<?xml version="1.0" encoding="UTF-8"?>
<svg id="Layer_1" xmlns="http://www.w3.org/2000/svg" version="1.1" viewBox="0 0 512 512">
  <!-- Generator: Adobe Illustrator 29.7.1, SVG Export Plug-In . SVG Version: 2.1.1 Build 8)  -->
  <defs>
    <style>
      .st0 {
        fill: none;
        stroke: #000;
        stroke-linecap: round;
        stroke-linejoin: round;
        stroke-width: 17.1px;
      }
    </style>
  </defs>
  <path class="st0" d="M149.5,316.2c16.7,13.6,26.5,34,26.5,55.6v17.9c0,9.9,8,17.9,17.9,17.9h125.2c9.9,0,17.9-8,17.9-17.9v-17.9c0-21.6,9.7-42,26.5-55.6,39.9-32.3,63-80.9,63-132.2,0-93.9-76-169.9-169.9-169.9S86.6,90,86.6,183.9s23.1,99.9,63,132.2h-.1ZM193.9,407.6v44.8c0,5.7,2.8,11.1,7.4,14.4l31.8,22.8c13.9,9.9,32.6,10,46.6,0l31.9-22.7c4.7-3.3,7.5-8.8,7.5-14.5v-44.7M265.4,443.3h53.7M193.9,443.3h17.9"/>
  <path class="st0" d="M211.8,407.6v-89.4h89.4v89.4M176,264.4v-53.7M229.7,264.4v-89.4M283.3,264.4v-53.7M337,264.4v-89.4M158.1,175l71.6-71.6,53.7,53.7,71.6-71.6M462.2,175h35.8M50.8,175H15M434.7,277.9l31,17.9M78.3,72.1l-31-17.9M434.7,72.1l31-17.9M78.3,277.9l-31,17.9"/>
</svg>