<?xml version="1.0" encoding="utf-8"?>
<!-- Generator: Adobe Illustrator 16.0.0, SVG Export Plug-In . SVG Version: 6.00 Build 0)  -->
<!DOCTYPE svg PUBLIC "-//W3C//DTD SVG 1.1//EN" "http://www.w3.org/Graphics/SVG/1.1/DTD/svg11.dtd">
<svg version="1.1" id="Layer_1" xmlns="http://www.w3.org/2000/svg" xmlns:xlink="http://www.w3.org/1999/xlink" x="0px" y="0px"
	 width="80px" height="80px" viewBox="0 0 80 80" enable-background="new 0 0 80 80" xml:space="preserve">
<g opacity="0.5">
	<g>
		<path fill="#D1D1D1" d="M10.899,57.102c0.653,0,1.247,0.147,1.573,0.444c0.059,0.476-0.387,1.247-0.653,1.247
			c-0.327-0.118-0.624-0.18-1.009-0.18c-1.543,0-2.313,1.603-2.313,3.177c0,0.978,0.326,1.569,1.126,1.569
			c0.831,0,1.663-0.562,2.136-0.979c0.119,0.088,0.268,0.354,0.268,0.651c0,0.327-0.09,0.653-0.416,0.981
			c-0.534,0.531-1.453,1.008-2.788,1.008c-1.513,0-2.582-0.859-2.582-2.877C6.301,59.477,8.022,57.102,10.899,57.102L10.899,57.102z
			 M15.883,63.271c0.831,0,2.343-1.453,2.759-4.242c0.03-0.178,0.03-0.206,0.059-0.385c-0.178-0.061-0.445-0.119-0.682-0.119
			c-0.624,0-1.276,0.178-1.839,0.979c-0.594,0.832-0.86,1.869-0.86,2.701C15.32,62.885,15.528,63.271,15.883,63.271L15.883,63.271z
			 M13.155,62.502c0-1.009,0.326-2.73,1.601-4.006c1.098-1.127,2.404-1.396,3.619-1.396c0.801,0,1.869,0.27,2.552,0.387
			c-0.177,0.742-0.564,3.562-0.771,5.191c-0.09,0.682-0.12,1.661-0.09,2.018c-0.563,0.238-1.601,0.297-1.897,0.297
			c-0.148,0-0.178-0.682-0.148-1.365c0.029-0.206,0.059-0.534,0.059-0.68c-0.651,1.096-1.957,2.016-3.322,2.016
			C13.776,64.992,13.155,64.163,13.155,62.502L13.155,62.502z M25.139,57.102c0.682,0,1.364,0.269,1.661,0.564
			c-0.029,0.475-0.385,1.275-0.979,1.037c-0.267-0.09-0.504-0.148-0.86-0.148c-0.445,0-0.86,0.207-0.86,0.625
			c0,0.324,0.237,0.563,1.364,1.363c0.801,0.594,1.128,1.127,1.128,1.869c0,1.245-1.157,2.58-3.205,2.58
			c-0.83,0-1.571-0.326-1.779-0.652c-0.297-0.505-0.06-1.513,0.267-1.334c0.445,0.206,1.156,0.445,1.75,0.445
			c0.564,0,0.92-0.27,0.92-0.594c0-0.297-0.267-0.537-1.275-1.278c-0.86-0.651-1.128-1.243-1.128-1.896
			C22.143,58.258,23.359,57.102,25.139,57.102L25.139,57.102z M30.982,57.102c0.682,0,1.364,0.269,1.661,0.564
			c-0.029,0.475-0.385,1.275-0.979,1.037c-0.266-0.09-0.504-0.148-0.86-0.148c-0.445,0-0.86,0.207-0.86,0.625
			c0,0.324,0.237,0.563,1.364,1.363c0.801,0.594,1.128,1.127,1.128,1.869c0,1.245-1.157,2.58-3.204,2.58
			c-0.831,0-1.543-0.326-1.78-0.652c-0.297-0.505-0.059-1.513,0.266-1.334c0.445,0.206,1.158,0.445,1.751,0.445
			c0.563,0,0.919-0.27,0.919-0.594c0-0.297-0.268-0.537-1.275-1.278c-0.861-0.651-1.128-1.243-1.128-1.896
			C27.986,58.258,29.202,57.102,30.982,57.102L30.982,57.102z M36.292,63.271c0.83,0,2.344-1.453,2.759-4.242
			c0.03-0.178,0.03-0.206,0.059-0.385c-0.177-0.061-0.444-0.119-0.682-0.119c-0.624,0-1.276,0.178-1.839,0.979
			c-0.594,0.832-0.86,1.869-0.86,2.701C35.759,62.885,35.937,63.271,36.292,63.271L36.292,63.271z M33.564,62.502
			c0-1.009,0.326-2.73,1.601-4.006c1.098-1.127,2.403-1.396,3.62-1.396c0.8,0,1.867,0.27,2.551,0.387
			c-0.179,0.742-0.564,3.562-0.771,5.191c-0.089,0.682-0.119,1.661-0.089,2.018c-0.563,0.238-1.601,0.297-1.897,0.297
			c-0.148,0-0.178-0.682-0.148-1.365c0.029-0.206,0.059-0.534,0.059-0.68c-0.653,1.096-1.957,2.016-3.323,2.016
			C34.216,64.992,33.564,64.163,33.564,62.502L33.564,62.502z M45.163,59.297c0.771-1.246,1.778-2.195,3.203-2.195
			c1.216,0,1.602,1.129,1.364,2.699c-0.121,0.742-0.326,1.811-0.444,2.787c-0.118,0.833-0.209,1.575-0.179,2.078
			c-0.444,0.208-1.721,0.297-2.018,0.297c-0.117,0-0.148-0.92,0.028-1.898c0.147-0.801,0.417-2.285,0.565-3.146
			c0.088-0.504,0.058-1.096-0.418-1.096c-0.621,0-2.104,1.009-2.847,5.101c-0.062,0.326-0.179,0.536-0.386,0.653
			c-0.27,0.147-0.801,0.297-1.9,0.297c0.21-1.039,0.536-3.146,0.773-4.717c0.207-1.425,0.297-2.343,0.266-2.7
			c0.296-0.088,1.811-0.415,1.958-0.415c0.181,0,0.209,0.534,0.062,1.781c-0.029,0.118-0.029,0.295-0.062,0.415h0.031v0.059H45.163z
			 M53.766,63.241c0.74,0,2.254-1.394,2.67-3.854c0.029-0.147,0.061-0.387,0.088-0.535c-0.207-0.207-0.504-0.324-0.979-0.324
			c-1.72,0-2.462,2.046-2.462,3.529C53.113,62.827,53.379,63.241,53.766,63.241L53.766,63.241z M52.668,64.992
			c-1.1,0-1.751-0.979-1.751-2.61c0-2.729,1.722-5.251,4.599-5.251c0.504,0,0.979,0.148,1.246,0.297
			c0.146-0.771,0.504-3.174,0.533-3.886c0.475-0.089,1.482-0.237,1.958-0.237c0.179,0,0.237,0.178,0.179,0.623
			c-0.416,2.551-1.127,7.418-1.275,8.484c-0.09,0.918-0.119,1.809-0.09,2.313c-0.532,0.237-1.631,0.297-1.928,0.297
			c-0.119,0-0.179-0.771-0.148-1.483c0.029-0.208,0.061-0.532,0.061-0.591C55.13,64.313,53.973,64.992,52.668,64.992L52.668,64.992z
			 M62.576,59.535c0.889-1.989,1.957-2.436,2.669-2.436c0.208,0,0.563,0.148,0.712,0.297c0.061,0.563-0.385,1.662-0.771,2.106
			c-0.207-0.089-0.444-0.207-0.742-0.207c-0.563,0-1.721,0.892-2.432,4.746c-0.061,0.326-0.148,0.444-0.326,0.534
			c-0.297,0.178-1.424,0.297-1.959,0.326c0.269-1.396,0.685-4.213,0.861-5.873c0.061-0.418,0.061-1.217,0.029-1.514
			c0.326-0.147,1.602-0.445,1.869-0.445c0.147,0,0.268,0.92,0.029,2.433h0.061V59.535L62.576,59.535z M68.538,63.271
			c0.831,0,2.344-1.453,2.759-4.242c0.029-0.178,0.029-0.206,0.059-0.385c-0.178-0.061-0.444-0.119-0.683-0.119
			c-0.622,0-1.274,0.178-1.838,0.979c-0.593,0.832-0.86,1.869-0.86,2.701C68.003,62.885,68.182,63.271,68.538,63.271L68.538,63.271z
			 M65.809,62.502c0-1.009,0.326-2.73,1.603-4.006c1.098-1.127,2.403-1.396,3.62-1.396c0.8,0,1.867,0.27,2.55,0.387
			c-0.179,0.742-0.563,3.562-0.771,5.191c-0.088,0.682-0.119,1.661-0.088,2.018c-0.564,0.238-1.604,0.297-1.899,0.297
			c-0.148,0-0.179-0.682-0.148-1.365c0.031-0.206,0.062-0.534,0.062-0.68c-0.653,1.096-1.959,2.016-3.323,2.016
			C66.462,64.992,65.809,64.163,65.809,62.502z"/>
	</g>
	<path fill="#E5E5E5" d="M62.691,28.415c0.565,6.498-9.67,12.698-22.87,13.825c-13.2,1.128-24.324-3.234-24.888-9.731
		c-0.564-6.496,9.671-12.696,22.871-13.823C50.977,17.559,62.131,21.89,62.691,28.415"/>
	<path fill="#FFFFFF" d="M38.161,19.427c-5.042-0.088-10.916,1.929-15.306,3.797c-0.444,1.305-0.712,2.699-0.712,4.153
		c0,7.713,6.972,13.973,15.574,13.973c8.604,0,15.604-6.229,15.604-13.973c0-2.432-0.711-4.746-1.93-6.733
		C47.891,20.109,43.057,19.517,38.161,19.427"/>
	<path fill="#FFFFFF" d="M37.746,19.427c-2.789-0.178-7.594,1.276-11.599,2.73c-0.624,1.423-0.95,2.996-0.95,4.657
		c0,6.764,6.141,12.251,12.607,12.251c6.437,0,12.131-5.487,12.607-12.251c0.147-2.195-0.593-4.272-1.661-6.052
		C44.627,20.05,40.238,19.605,37.746,19.427"/>
	<path fill="#373535" d="M30.597,25.955c0.356-0.772,0.86-1.128,1.364-1.751c-0.059-0.148-0.178-0.652-0.178-0.801
		c0-0.771,0.623-1.364,1.364-1.364c0.178,0,0.356,0.029,0.505,0.089c2.285-1.75,5.281-2.492,8.306-1.81
		c0.269,0.059,0.535,0.147,0.802,0.208c-2.967-0.416-6.349,0.652-8.633,2.491c0.06,0.178,0.268,0.624,0.268,0.831
		c0,0.772-0.505,0.949-1.247,0.949c-0.177,0-0.326-0.03-0.504-0.089c-0.503,0.682-1.156,2.017-1.453,2.848
		c1.276,1.127,2.403,1.543,3.886,2.106c0-0.059,0.059-0.148,0.059-0.208c0-2.284,2.017-4.153,4.301-4.153
		c2.047,0,3.769,1.483,4.095,3.44c1.038-0.653,2.017-1.157,2.758-2.105c-0.179-0.208-0.354-0.83-0.354-1.127
		c0-0.683,0.563-1.247,1.246-1.247c0.088,0,0.178,0,0.297,0.031c0.385-0.801,0.682-1.632,0.858-2.492
		c-3.589-2.671-10.531-2.285-10.531-2.285s-5.517-0.297-9.255,1.542C28.817,22.779,29.528,24.5,30.597,25.955"/>
	<path fill="#373535" d="M47.742,24.916c0.268,0.237,0.388,0.416,0.505,0.623c0.327,0.594-0.326,1.157-1.038,1.157
		c-0.061,0-0.148,0-0.208-0.029c-0.771,1.215-2.135,2.758-3.351,3.559c1.867,0.297,3.617,1.039,4.981,2.195
		c1.009-1.809,1.779-4.449,1.779-6.675c0-1.691-0.741-2.937-1.868-3.856C48.516,22.809,48.01,24.084,47.742,24.916 M32.673,36.426
		c0.623-1.722,2.136-3.027,3.589-4.184c-0.207-0.296-0.534-1.009-0.652-1.335c-1.75-0.534-3.293-1.542-4.509-2.848
		c0,0.029-0.03,0.09-0.03,0.119c-0.238,1.009-0.267,2.047-0.148,3.026c0.831,0.148,1.483,0.891,1.483,1.78
		c0,0.533-0.475,1.275-0.831,1.631C31.932,35.387,32.198,35.802,32.673,36.426"/>
	<path fill="#373535" d="M32.555,37.849c-0.742-0.741-1.247-2.195-1.721-3.114c-0.088,0-0.178,0.029-0.267,0.029
		c-1.008,0-2.047-0.83-1.81-1.81c0.119-0.534,0.505-0.891,1.097-1.186c-0.147-1.128-0.178-2.701,0.089-3.857
		c0.059-0.327,0.237-0.474,0.326-0.8c-1.097-1.602-1.81-3.738-1.81-5.845v-0.237c-1.868,0.95-3.263,2.403-3.263,4.716
		c0,5.132,2.966,10.176,7.357,12.132v-0.028 M43.383,30.76c-0.564,1.601-2.105,2.788-3.917,2.788c-0.979,0-1.869-0.327-2.551-0.89
		c-1.454,1.128-2.789,3.115-3.441,4.865c0.297,0.326,0.504,0.594,0.86,0.891c1.009,0.266,2.433,0,3.531,0
		c4.418,0,8.365-1.958,10.619-5.429C46.941,31.917,45.163,30.907,43.383,30.76"/>
	<path fill="#D1D1D1" d="M30.478,26.546c0.356-0.77,0.772-1.454,1.276-2.106c-0.06-0.147-0.089-0.325-0.089-0.474
		c0-0.772,0.624-1.366,1.366-1.366c0.178,0,0.355,0.031,0.503,0.09c2.284-1.751,5.28-2.492,8.306-1.81
		c0.268,0.059,0.534,0.148,0.801,0.208c-2.965-0.415-6.051,0.504-8.334,2.344c0.06,0.177,0.119,0.356,0.119,0.535
		c0,0.771-0.623,1.364-1.364,1.364c-0.178,0-0.326-0.03-0.504-0.09c-0.504,0.683-0.95,1.454-1.247,2.285
		c1.098,1.157,2.433,2.106,3.916,2.64v-0.208c0-2.284,1.869-4.152,4.154-4.152c2.046,0,3.767,1.482,4.091,3.44
		c1.039-0.651,1.93-1.483,2.701-2.461c-0.178-0.208-0.297-0.475-0.297-0.771c0-0.682,0.563-1.246,1.245-1.246
		c0.09,0,0.178,0,0.297,0.03c0.386-0.801,0.683-1.632,0.86-2.491c-3.59-2.67-10.53-2.285-10.53-2.285s-5.517-0.297-9.255,1.542
		C28.698,23.373,29.411,25.093,30.478,26.546"/>
	<path fill="#D1D1D1" d="M47.921,25.124c0.267,0.237,0.415,0.563,0.415,0.919c0,0.682-0.563,1.246-1.245,1.246
		c-0.06,0-0.147,0-0.208-0.03c-0.771,1.216-1.811,2.254-3.025,3.026c1.779,0.266,3.472,1.038,4.865,2.194
		c1.008-1.809,1.603-3.916,1.603-6.14c0-1.691-0.742-2.937-1.87-3.856C48.396,23.402,48.218,24.293,47.921,25.124 M32.851,36.811
		c0.624-1.72,1.692-3.232,3.145-4.39c-0.207-0.297-0.385-0.594-0.504-0.949c-1.75-0.534-3.294-1.542-4.509-2.848
		c0,0.03-0.029,0.088-0.029,0.118c-0.237,1.009-0.268,2.047-0.148,3.027c0.831,0.148,1.483,0.889,1.483,1.779
		c0,0.535-0.237,1.008-0.594,1.335C31.991,35.564,32.407,36.217,32.851,36.811"/>
	<path fill="#D1D1D1" d="M32.555,37.819c-0.742-0.741-1.365-1.572-1.839-2.492c-0.089,0-0.179,0.029-0.267,0.029
		c-1.009,0-1.81-0.801-1.81-1.81c0-0.711,0.416-1.335,1.008-1.63c-0.148-1.128-0.088-2.255,0.178-3.412
		c0.06-0.327,0.178-0.652,0.268-0.979c-1.098-1.602-1.75-3.559-1.75-5.666V21.62c-1.868,0.95-3.262,2.404-3.262,4.718
		c0,5.132,3.055,9.552,7.445,11.509C32.555,37.849,32.555,37.849,32.555,37.819 M43.264,31.353
		c-0.563,1.602-2.105,2.789-3.916,2.789c-0.979,0-1.87-0.327-2.551-0.89c-1.454,1.127-2.551,2.67-3.233,4.419
		c0.296,0.326,0.623,0.623,0.948,0.92c1.008,0.267,2.077,0.415,3.175,0.415c4.418,0,8.334-2.284,10.59-5.754
		C46.794,32.183,45.044,31.501,43.264,31.353"/>
	<path fill="#FFFFFF" d="M43.412,30.285l3.826-0.92l-3.855-0.208l3.145-2.373l-3.561,1.275l2.402-3.352l-3.352,2.226l1.155-3.917
		l-2.282,3.233l-0.06-4.092l-1.514,3.649l-1.246-3.679l0.06,4.331l-2.166-3.887l1.187,4.124l-3.53-2.55l2.76,3.471l-4.391-1.602
		l3.441,2.55l-4.42,0.148l4.54,1.157l-4.54,0.979l4.48,0.327l-3.767,2.403l3.886-1.396l-2.699,3.412l3.411-2.759l-1.216,4.568
		l2.64-3.738l-0.355,4.392l1.483-4.006l1.274,4.183l0.297-4.213l1.9,3.59l-1.129-4.095l3.44,2.67l-2.226-3.411l3.799,1.483
		l-2.908-2.848l3.887,0.297L43.412,30.285z"/>
	<path fill="#373535" fill-opacity="0.35" d="M2.564,37.612c11.895-11.896,21.388-15.574,30.021-17.235
		c1.127-0.208,1.364-2.729,1.364-2.729s0.148,1.839,0.95,2.076c0.801,0.237,1.839-2.877,1.839-2.877s-0.949,2.789,0,2.966
		c0.95,0.147,2.729-2.73,2.729-2.73s-0.712,2.462-0.236,2.641c0.474,0.148,2.876-3.59,2.876-3.59s-1.424,2.462-0.088,2.729
		c1.363,0.237,3.351-1.69,3.351-1.69s-1.541,1.75-0.86,2.017c2.969,1.038,5.342-2.789,5.342-2.789s-0.563,1.691-1.988,3.53
		c3.115,0.801,5.43-3.885,5.43-3.885l-2.314,4.686c1.188,0.594,5.965-4.924,5.965-4.924S54.477,20.109,53.021,21
		c0.803,0.653,3.68-1.929,3.68-1.929s-2.313,2.877-1.424,3.026c1.274,1.039,5.992-5.339,5.992-5.339s-1.84,3.768-4.539,6.704
		c2.254,1.158,7.892-6.11,7.892-6.11s-0.147,2.313-4.242,5.992c3.026-0.386,6.94-6.14,6.94-6.14s-1.422,4.301-4.863,7.356
		c2.967-0.297,7.741-7.653,7.741-7.653s-1.839,5.103-5.576,8.069c4.153,0.919,10.146-5.281,10.146-5.281s-2.344,4.39-5.43,6.2
		c3.441,1.305,8.158-4.124,8.158-4.124s-4.717,7.269-12.221,6.942c-2.463-0.117-9.909-7.475-25.868-6.881
		C18.287,22.601,13.837,31.56,2.564,37.612"/>
	<path fill="#D1D1D1" d="M3.039,36.722C14.934,24.827,24.427,21.148,33.06,19.487c1.127-0.208,1.364-2.729,1.364-2.729
		s0.148,1.839,0.949,2.077c0.8,0.236,1.839-2.878,1.839-2.878s-0.95,2.789,0,2.966c0.948,0.148,2.729-2.728,2.729-2.728
		s-0.711,2.462-0.237,2.64c0.475,0.148,2.876-3.59,2.876-3.59s-1.423,2.462-0.087,2.729c1.364,0.237,3.353-1.691,3.353-1.691
		s-1.544,1.75-0.861,2.017c2.967,1.039,5.341-2.788,5.341-2.788s-0.565,1.691-1.988,3.53c3.115,0.801,5.429-3.885,5.429-3.885
		l-2.313,4.686c1.188,0.653,5.992-4.865,5.992-4.865s-2.463,4.301-3.916,5.192c0.801,0.563,3.678-1.988,3.678-1.988
		s-2.313,2.877-1.422,3.026c1.273,1.038,5.99-5.339,5.99-5.339s-1.867,3.768-4.568,6.703c2.256,1.128,7.922-6.14,7.922-6.14
		s-0.148,2.314-4.242,5.992c3.025-0.385,6.94-6.14,6.94-6.14s-1.423,4.301-4.864,7.357c2.967-0.297,7.743-7.653,7.743-7.653
		s-1.841,5.102-5.577,8.068c4.153,0.92,10.146-5.28,10.146-5.28s-2.344,4.391-5.43,6.201C73.283,26.28,78,20.852,78,20.852
		s-4.717,7.268-12.223,6.941c-2.461-0.119-9.906-7.475-25.866-6.882C18.791,21.712,14.311,30.641,3.039,36.722"/>
	<path fill="#373535" fill-opacity="0.35" d="M2.268,38.917c6.289,3.146,12.043-0.475,19.281,1.572
		c5.519,1.543,12.222,3.47,21.328,2.137c9.107-1.306,16.881-5.282,20.618-12.341c1.155-3.145,5.874,0.711,5.874,0.711
		s-3.442-1.424-3.354-0.771c0.09,0.682,5.161,3.026,5.161,3.026s-4.598-1.425-4.302-0.356c0.268,1.068,5.756,5.399,5.756,5.399
		s-6.261-4.687-6.764-4.034c-0.535,0.653,2.64,3.233,2.64,3.233s-5.222-3.233-7.06-2.284c-1.336,0.683,5.428,5.103,5.428,5.103
		s-4.391-3.352-5.428-2.462c-1.038,0.891,4.953,8.069,4.953,8.069s-6.823-7.356-7.506-7.001c-0.683,0.356,1.869,3.885,1.869,3.885
		s-3.322-3.677-4.242-3.054c-0.918,0.652,4.807,10.176,4.807,10.176s-6.199-9.761-8.78-8.129c4.004,8.81,2.521,10.058,2.521,10.058
		s-0.504-8.989-5.517-8.754c-2.521,0.121,1.187,6.705,1.187,6.705s-3.41-6.021-5.694-5.902c4.183,7.951,2.698,11.154,2.698,11.154
		s0.684-6.793-4.982-10.561c2.164,1.928-1.365,10.561-1.365,10.561s3.084-12.727-2.284-10.295c-0.86,0.387-0.059,6.35-0.059,6.35
		s-1.068-6.823-2.699-6.467c-0.95,0.207-5.993,9.463-5.993,9.463s4.123-9.998,2.877-9.582c-0.919,0.297-2.64,4.42-2.64,4.42
		s0.831-4.063,0-4.301c-0.83-0.238-5.517,4.301-5.517,4.301s3.47-4.063,2.876-4.926c-0.919-1.273-1.958-1.332-3.234-0.828
		c-1.839,0.711-4.3,4.063-4.3,4.063s2.461-3.413,2.047-4.657c-0.682-2.048-7.772,3.945-7.772,3.945s4.183-3.945,3.234-4.807
		c-0.949-0.829-6.171-0.594-7.772-0.594C5.382,41.201,3.721,40.074,2.268,38.917"/>
	<path fill="#D1D1D1" d="M2,38.205c6.289,3.145,12.044-0.474,19.283,1.573c5.517,1.542,12.221,3.47,21.328,2.137
		c9.106-1.306,16.88-5.281,20.617-12.342c1.158-3.145,5.873,0.713,5.873,0.713s-3.44-1.425-3.352-0.772
		c0.088,0.682,5.16,3.026,5.16,3.026s-4.598-1.423-4.301-0.356c0.267,1.069,5.756,5.4,5.756,5.4s-6.2-4.717-6.705-4.065
		c-0.504,0.653,2.64,3.234,2.64,3.234s-5.22-3.234-7.06-2.284c-1.334,0.682,5.428,5.104,5.428,5.104s-4.389-3.354-5.428-2.462
		c-1.038,0.89,4.953,8.068,4.953,8.068s-6.793-7.355-7.476-7.001c-0.683,0.356,1.869,3.888,1.869,3.888s-3.383-3.648-4.302-3.026
		c-0.92,0.653,4.773,10.177,4.773,10.177s-6.197-9.791-8.748-8.156c4.035,8.838,2.521,10.084,2.521,10.084s-0.505-8.988-5.517-8.75
		c-2.522,0.115,1.185,6.703,1.185,6.703s-3.382-5.994-5.665-5.873c4.184,7.951,2.7,11.153,2.7,11.153s0.682-6.794-4.984-10.563
		c2.166,1.931-1.364,10.563-1.364,10.563s3.086-12.728-2.285-10.293c-0.86,0.384-0.059,6.349-0.059,6.349s-1.069-6.824-2.7-6.47
		c-0.948,0.208-5.992,9.464-5.992,9.464s4.124-9.994,2.878-9.582c-0.92,0.297-2.641,4.422-2.641,4.422s0.831-4.063,0-4.304
		c-0.83-0.233-5.519,4.304-5.519,4.304s3.471-4.063,2.878-4.925c-0.92-1.274-1.958-1.336-3.234-0.833
		c-1.839,0.715-4.302,4.066-4.302,4.066s2.463-3.412,2.048-4.657c-0.683-2.048-7.772,3.944-7.772,3.944s4.182-3.944,3.233-4.805
		c-0.949-0.832-6.17-0.595-7.772-0.595C5.115,40.489,3.454,39.361,2,38.205"/>
</g>
</svg>
