<?xml version="1.0" encoding="utf-8"?>
<!-- Generator: Adobe Illustrator 16.0.0, SVG Export Plug-In . SVG Version: 6.00 Build 0)  -->
<!DOCTYPE svg PUBLIC "-//W3C//DTD SVG 1.1//EN" "http://www.w3.org/Graphics/SVG/1.1/DTD/svg11.dtd">
<svg version="1.1" id="Layer_1" xmlns="http://www.w3.org/2000/svg" xmlns:xlink="http://www.w3.org/1999/xlink" x="0px" y="0px"
	 width="80px" height="80px" viewBox="0 0 80 80" enable-background="new 0 0 80 80" xml:space="preserve">
<g opacity="0.5">
	<path fill="#D1D1D1" d="M19.753,61.772h-3.01c-0.106-5.081-0.399-9.856-0.879-14.332h-0.026l-4.582,14.332H8.964L4.409,47.44H4.383
		c-0.338,4.297-0.551,9.074-0.639,14.332H1c0.178-6.394,0.622-12.388,1.332-17.982h3.729l4.342,13.213h0.027l4.368-13.213h3.568
		C19.149,50.344,19.611,56.338,19.753,61.772 M32.806,48.505c-1.226,6.649-2.843,11.481-4.849,14.498
		c-1.563,2.321-3.276,3.483-5.142,3.483c-0.497,0-1.11-0.15-1.838-0.448v-1.604c0.355,0.052,0.772,0.081,1.252,0.081
		c0.871,0,1.571-0.24,2.105-0.721c0.639-0.585,0.958-1.242,0.958-1.97c0-0.499-0.249-1.52-0.746-3.064l-3.303-10.257h2.957
		l2.37,7.672c0.533,1.741,0.755,2.958,0.666,3.65c1.297-3.462,2.202-7.237,2.718-11.322L32.806,48.505L32.806,48.505z"/>
	<path fill="#D1D1D1" d="M72.867,61.772h-8.549V43.79h2.876v15.769h5.673V61.772z M62.08,62.206l-3.306-1.631
		c0.294-0.241,0.574-0.501,0.826-0.803c1.405-1.651,2.106-4.092,2.106-7.325c0-5.949-2.335-8.925-7.006-8.925
		c-2.29,0-4.076,0.755-5.354,2.266c-1.404,1.651-2.104,4.084-2.104,7.299c0,3.161,0.621,5.48,1.864,6.951
		c1.137,1.332,2.851,1.999,5.143,1.999c0.854,0,1.64-0.104,2.354-0.315l4.304,2.505L62.08,62.206z M51.372,58.174
		c-0.729-1.171-1.093-3.052-1.093-5.646c0-4.527,1.376-6.794,4.13-6.794c1.439,0,2.494,0.542,3.169,1.624
		c0.727,1.173,1.093,3.037,1.093,5.594c0,4.565-1.377,6.848-4.129,6.848C53.102,59.801,52.047,59.26,51.372,58.174 M45.988,56.788
		c0,1.524-0.559,2.775-1.677,3.756c-1.119,0.976-2.619,1.465-4.5,1.465c-1.759,0-3.464-0.562-5.114-1.68l0.773-1.544
		c1.42,0.711,2.706,1.064,3.86,1.064c1.083,0,1.93-0.24,2.544-0.716c0.613-0.479,0.979-1.149,0.979-1.997
		c0-1.068-0.745-1.981-2.111-2.746c-1.261-0.692-3.781-2.139-3.781-2.139c-1.366-0.996-2.05-2.065-2.05-3.826
		c0-1.457,0.51-2.634,1.53-3.529c1.022-0.898,2.341-1.346,3.957-1.346c1.669,0,3.187,0.447,4.553,1.332l-0.693,1.545
		c-1.169-0.497-2.322-0.745-3.461-0.745c-0.922,0-1.634,0.222-2.128,0.666c-0.499,0.443-0.807,1.011-0.807,1.706
		c0,1.063,0.761,1.988,2.164,2.768c1.277,0.693,3.86,2.165,3.86,2.165C45.289,53.981,45.988,55.041,45.988,56.788"/>
	<path fill="#D1D1D1" d="M76.479,37.768c-1.739-0.045-3.086,0.131-4.216,0.608c-0.326,0.131-0.845,0.131-0.891,0.543
		c0.177,0.174,0.197,0.456,0.35,0.696c0.261,0.435,0.715,1.02,1.13,1.324c0.455,0.349,0.912,0.694,1.392,0.998
		c0.845,0.523,1.803,0.827,2.626,1.349c0.48,0.303,0.957,0.694,1.438,1.021c0.236,0.175,0.388,0.456,0.693,0.565v-0.066
		c-0.153-0.195-0.196-0.479-0.348-0.695L78,43.48c-0.63-0.847-1.414-1.586-2.259-2.193c-0.695-0.479-2.217-1.13-2.499-1.932
		l-0.044-0.044c0.478-0.045,1.045-0.219,1.499-0.352c0.739-0.194,1.413-0.15,2.172-0.346c0.349-0.087,0.695-0.196,1.045-0.304
		v-0.196c-0.394-0.392-0.674-0.911-1.087-1.281c-1.106-0.955-2.325-1.89-3.585-2.672c-0.675-0.436-1.542-0.716-2.261-1.087
		c-0.259-0.131-0.694-0.195-0.848-0.413c-0.39-0.478-0.608-1.107-0.892-1.673c-0.628-1.194-1.237-2.519-1.779-3.781
		c-0.393-0.847-0.631-1.692-1.109-2.476c-2.238-3.693-4.67-5.931-8.407-8.126c-0.804-0.457-1.759-0.651-2.779-0.892l-1.631-0.086
		c-0.348-0.152-0.696-0.565-0.999-0.761c-1.24-0.782-4.433-2.477-5.345-0.239c-0.587,1.414,0.869,2.804,1.369,3.521
		c0.369,0.498,0.848,1.064,1.106,1.63c0.152,0.369,0.196,0.762,0.349,1.151c0.348,0.956,0.673,2.02,1.13,2.912
		c0.238,0.455,0.499,0.933,0.804,1.345c0.174,0.24,0.478,0.347,0.544,0.739c-0.303,0.434-0.327,1.086-0.501,1.63
		c-0.781,2.454-0.476,5.495,0.632,7.3c0.347,0.543,1.174,1.738,2.28,1.28c0.979-0.391,0.762-1.629,1.044-2.715
		c0.064-0.262,0.021-0.435,0.152-0.606v0.042c0.303,0.608,0.608,1.194,0.89,1.804c0.674,1.063,1.848,2.172,2.825,2.909
		c0.521,0.393,0.933,1.065,1.585,1.306V38.81h-0.043c-0.132-0.195-0.325-0.282-0.499-0.434c-0.392-0.392-0.825-0.869-1.13-1.303
		c-0.91-1.218-1.717-2.565-2.432-3.956c-0.351-0.675-0.652-1.412-0.935-2.085c-0.131-0.261-0.131-0.652-0.35-0.783
		c-0.326,0.478-0.803,0.891-1.041,1.477c-0.414,0.936-0.457,2.086-0.61,3.283l-0.086,0.042c-0.691-0.174-0.933-0.89-1.195-1.498
		c-0.65-1.543-0.76-4.021-0.195-5.802c0.151-0.455,0.806-1.89,0.544-2.323c-0.131-0.416-0.565-0.652-0.804-0.979
		c-0.28-0.412-0.588-0.934-0.783-1.391c-0.521-1.216-0.783-2.563-1.345-3.779c-0.262-0.566-0.718-1.152-1.086-1.674
		c-0.414-0.586-0.87-0.999-1.197-1.694c-0.108-0.239-0.26-0.63-0.086-0.89c0.042-0.175,0.131-0.24,0.304-0.283
		c0.282-0.238,1.086,0.064,1.368,0.195c0.806,0.325,1.479,0.63,2.151,1.086c0.305,0.218,0.631,0.631,1.021,0.739h0.457
		c0.694,0.151,1.477,0.042,2.13,0.238c1.15,0.37,2.193,0.913,3.129,1.499c2.846,1.805,5.192,4.368,6.776,7.431
		c0.26,0.499,0.37,0.956,0.607,1.477c0.458,1.066,1.023,2.152,1.478,3.195c0.457,1.021,0.892,2.063,1.544,2.91
		c0.325,0.456,1.631,0.695,2.217,0.935c0.434,0.194,1.108,0.368,1.499,0.607c0.739,0.455,1.476,0.978,2.17,1.479
		C75.326,36.789,76.413,37.332,76.479,37.768"/>
	<path fill="#D1D1D1" d="M78.548,61.77h0.45v-2.203h-0.676l-0.551,1.503l-0.599-1.503h-0.65v2.203h0.426v-1.677h0.023l0.627,1.677
		h0.324l0.625-1.677V61.77L78.548,61.77z M74.921,61.77h0.477v-1.83h0.624v-0.374h-1.75v0.374h0.648L74.921,61.77L74.921,61.77z"/>
</g>
</svg>
