<?xml version="1.0" encoding="utf-8"?>
<!-- Generator: Adobe Illustrator 22.0.1, SVG Export Plug-In . SVG Version: 6.00 Build 0)  -->
<svg version="1.1" id="Layer_1" xmlns="http://www.w3.org/2000/svg" xmlns:xlink="http://www.w3.org/1999/xlink" x="0px" y="0px"
	 viewBox="0 0 63.2 69.8" style="enable-background:new 0 0 63.2 69.8;" xml:space="preserve">
<style type="text/css">
	.st0{fill:none;stroke:#BFC0D2;stroke-width:1.5;stroke-linejoin:round;}
	.st1{fill:none;stroke:#EBB30A;stroke-width:1.5;stroke-linejoin:round;}
</style>
<g id="Group_193" transform="translate(-6.25 -0.25)">
	<g id="Group_192" transform="translate(7 1)">
		<g id="Group_189">
			<path id="Path_95" class="st0" d="M14.3,68.3V54H0"/>
			<path id="Path_96" class="st0" d="M55.1,63.9v4.4H14.3L0,54V0h55.1v50.7"/>
		</g>
		<g id="Group_190" transform="translate(16.523 4.406)">
			<path id="Path_97" class="st1" d="M22,0v15.4c0,0,0,5.5-11,11c-11-5.5-11-11-11-11V0H22z"/>
			<path id="Path_98" class="st1" d="M17.6,4.4v9.9c0,0,0,3.3-6.6,6.6c-6.6-3.3-6.6-6.6-6.6-6.6V4.4H17.6z"/>
			<line id="Line_98" class="st1" x1="11" y1="20.9" x2="11" y2="4.4"/>
			<line id="Line_99" class="st1" x1="4.4" y1="11" x2="17.6" y2="11"/>
		</g>
		<g id="Group_191" transform="translate(22.031 53.976)">
			<rect id="Rectangle_498" x="6.6" y="0" class="st1" width="33" height="6.6"/>
			<path id="Path_99" class="st1" d="M6.6,0L0,3.3l6.6,3.3"/>
		</g>
		<line id="Line_100" class="st0" x1="11" y1="35.2" x2="48.5" y2="35.2"/>
		<line id="Line_101" class="st0" x1="6.6" y1="39.7" x2="46.3" y2="39.7"/>
		<line id="Line_102" class="st0" x1="6.6" y1="48.5" x2="46.3" y2="48.5"/>
		<line id="Line_103" class="st1" x1="8.8" y1="35.2" x2="6.6" y2="35.2"/>
		<line id="Line_104" class="st0" x1="11" y1="44.1" x2="48.5" y2="44.1"/>
		<line id="Line_105" class="st1" x1="8.8" y1="44.1" x2="6.6" y2="44.1"/>
	</g>
	<line id="Line_106" class="st1" x1="41.1" y1="9.8" x2="45.6" y2="5.4"/>
	<line id="Line_107" class="st1" x1="27.9" y1="9.8" x2="23.5" y2="5.4"/>
</g>
</svg>
